<svg width="21" height="22" viewBox="0 0 21 22" fill="none" xmlns="http://www.w3.org/2000/svg">
<path d="M10.5605 21.2715C4.90625 21.2715 0.248047 16.6133 0.248047 10.9492C0.248047 5.29492 4.89648 0.636719 10.5605 0.636719C16.2148 0.636719 20.873 5.29492 20.873 10.9492C20.873 16.6133 16.2246 21.2715 10.5605 21.2715ZM10.5605 18.7031C14.8574 18.7031 18.3047 15.2461 18.3047 10.9492C18.3047 6.66211 14.8477 3.20508 10.5605 3.20508C6.26367 3.20508 2.82617 6.66211 2.82617 10.9492C2.82617 15.2461 6.27344 18.7031 10.5605 18.7031ZM8.36328 15.2656C7.76758 15.2656 7.36719 14.8945 7.36719 14.3477C7.36719 14.0156 7.46484 13.7129 7.83594 13.3809L10.541 10.7539C11.1758 10.168 11.5859 9.68945 11.5859 9.16211C11.5859 8.60547 11.1758 8.24414 10.541 8.24414C9.87695 8.24414 9.51562 8.69336 9.27148 9.13281C9.06641 9.42578 8.82227 9.67969 8.32422 9.67969C7.72852 9.67969 7.32812 9.36719 7.32812 8.79102C7.32812 8.625 7.34766 8.45898 7.40625 8.29297C7.77734 7.17969 9.06641 6.38867 10.5996 6.38867C12.5527 6.38867 13.8613 7.42383 13.8613 8.9668C13.8613 9.94336 13.3145 10.7051 12.2793 11.6523L10.6387 13.293V13.3809H13.207C13.8516 13.3809 14.252 13.7227 14.252 14.3184C14.252 14.9043 13.8418 15.2656 13.207 15.2656H8.36328Z" fill="#00A3FF"/>
</svg>
