<svg width="21" height="22" viewBox="0 0 21 22" fill="none" xmlns="http://www.w3.org/2000/svg">
<path d="M10.5605 21.2715C4.90625 21.2715 0.248047 16.6133 0.248047 10.9492C0.248047 5.29492 4.89648 0.636719 10.5605 0.636719C16.2148 0.636719 20.873 5.29492 20.873 10.9492C20.873 16.6133 16.2246 21.2715 10.5605 21.2715ZM10.5605 18.7031C14.8574 18.7031 18.3047 15.2461 18.3047 10.9492C18.3047 6.66211 14.8477 3.20508 10.5605 3.20508C6.26367 3.20508 2.82617 6.66211 2.82617 10.9492C2.82617 15.2461 6.27344 18.7031 10.5605 18.7031ZM11.8398 15.5C11.2344 15.5 10.8438 15.1289 10.8438 14.4258V13.7715H7.86523C7.00586 13.7715 6.44922 13.2637 6.44922 12.4824C6.44922 12.1211 6.53711 11.7598 6.76172 11.3203C7.33789 10.2852 8.22656 8.87891 9.00781 7.64844C9.56445 6.73047 10.1406 6.38867 11.1562 6.38867C12.1328 6.38867 12.8457 7.01367 12.8457 7.87305V11.9648H13.2852C13.9004 11.9648 14.2812 12.3164 14.2812 12.8633C14.2812 13.4199 13.8906 13.7715 13.2852 13.7715H12.8457V14.4258C12.8457 15.1387 12.4551 15.5 11.8398 15.5ZM10.8438 11.9648V8.06836H10.7559C9.99414 9.33789 9.05664 10.8711 8.50977 11.8965V11.9648H10.8438Z" fill="#00A3FF"/>
</svg>
