<svg width="22" height="22" viewBox="0 0 22 22" fill="none" xmlns="http://www.w3.org/2000/svg">
<path d="M11.0605 21.2715C5.40625 21.2715 0.748047 16.6133 0.748047 10.9492C0.748047 5.29492 5.39648 0.636719 11.0605 0.636719C16.7148 0.636719 21.373 5.29492 21.373 10.9492C21.373 16.6133 16.7246 21.2715 11.0605 21.2715ZM11.0605 18.7031C15.3574 18.7031 18.8047 15.2461 18.8047 10.9492C18.8047 6.66211 15.3477 3.20508 11.0605 3.20508C6.76367 3.20508 3.32617 6.66211 3.32617 10.9492C3.32617 15.2461 6.77344 18.7031 11.0605 18.7031ZM11.666 15.5C10.9434 15.5 10.4648 15.0898 10.4648 14.2305V8.74219H10.3867L9.38086 9.40625C9.09766 9.60156 8.96094 9.63086 8.75586 9.63086C8.29688 9.63086 7.95508 9.25977 7.95508 8.79102C7.95508 8.41992 8.11133 8.17578 8.45312 7.95117L10.0352 6.89648C10.5918 6.53516 11.002 6.38867 11.5195 6.38867C12.3398 6.38867 12.877 6.89648 12.877 7.66797V14.2305C12.877 15.0898 12.3984 15.5 11.666 15.5Z" fill="#00A3FF"/>
</svg>
