<svg width="21" height="22" viewBox="0 0 21 22" fill="none" xmlns="http://www.w3.org/2000/svg">
<path d="M10.5605 21.2812C4.90625 21.2812 0.248047 16.623 0.248047 10.9688C0.248047 5.30469 4.89648 0.646484 10.5605 0.646484C16.2148 0.646484 20.873 5.30469 20.873 10.9688C20.873 16.623 16.2246 21.2812 10.5605 21.2812ZM10.5605 18.7129C14.8574 18.7129 18.3047 15.2559 18.3047 10.9688C18.3047 6.67188 14.8477 3.21484 10.5605 3.21484C6.26367 3.21484 2.82617 6.67188 2.82617 10.9688C2.82617 15.2559 6.27344 18.7129 10.5605 18.7129ZM10.6191 15.5098C8.97852 15.5098 7.64062 14.7871 7.30859 13.7227C7.25 13.5664 7.23047 13.4297 7.23047 13.2539C7.23047 12.6973 7.63086 12.3359 8.24609 12.3359C8.65625 12.3359 8.94922 12.502 9.17383 12.873C9.42773 13.3809 9.88672 13.7324 10.668 13.7324C11.4395 13.7324 11.9668 13.3418 11.9668 12.7559C11.9668 12.1406 11.4492 11.75 10.6289 11.75H10.2578C9.67188 11.75 9.29102 11.3984 9.29102 10.8711C9.29102 10.334 9.66211 10.002 10.2578 10.002H10.5996C11.293 10.002 11.7617 9.5918 11.7617 9.01562C11.7617 8.46875 11.332 8.13672 10.6387 8.13672C9.99414 8.13672 9.52539 8.45898 9.28125 8.99609C9.06641 9.36719 8.7832 9.5332 8.36328 9.5332C7.74805 9.5332 7.34766 9.18164 7.34766 8.625C7.34766 8.45898 7.37695 8.3125 7.42578 8.14648C7.74805 7.07227 8.97852 6.4082 10.6582 6.4082C12.6602 6.4082 13.998 7.35547 13.998 8.76172C13.998 9.68945 13.2461 10.5488 12.3184 10.6758V10.7832C13.4316 10.8809 14.252 11.7695 14.252 12.8828C14.252 14.4551 12.8652 15.5098 10.6191 15.5098Z" fill="#00A3FF"/>
</svg>
