<svg width="20" height="20" viewBox="0 0 20 20" fill="none" xmlns="http://www.w3.org/2000/svg">
<path d="M16.55 11.8583H3.54999C3.38423 11.8583 3.22526 11.7924 3.10805 11.6752C2.99084 11.558 2.92499 11.399 2.92499 11.2333C2.92499 11.0675 2.99084 10.9086 3.10805 10.7913C3.22526 10.6741 3.38423 10.6083 3.54999 10.6083H16.55C16.7157 10.6083 16.8747 10.6741 16.9919 10.7913C17.1091 10.9086 17.175 11.0675 17.175 11.2333C17.175 11.399 17.1091 11.558 16.9919 11.6752C16.8747 11.7924 16.7157 11.8583 16.55 11.8583ZM17.175 16.9083C17.175 16.7425 17.1091 16.5836 16.9919 16.4663C16.8747 16.3491 16.7157 16.2833 16.55 16.2833H3.54999C3.38423 16.2833 3.22526 16.3491 3.10805 16.4663C2.99084 16.5836 2.92499 16.7425 2.92499 16.9083C2.92499 17.074 2.99084 17.233 3.10805 17.3502C3.22526 17.4674 3.38423 17.5333 3.54999 17.5333H16.55C16.7151 17.5311 16.8728 17.4646 16.9895 17.3478C17.1063 17.2311 17.1728 17.0734 17.175 16.9083ZM17.125 5.31662C17.0934 5.24224 17.0481 5.17442 16.9917 5.11662L14.8917 3.01662C14.7732 2.90622 14.6165 2.84612 14.4546 2.84897C14.2926 2.85183 14.1381 2.91742 14.0236 3.03194C13.9091 3.14645 13.8435 3.30093 13.8407 3.46285C13.8378 3.62477 13.8979 3.78147 14.0083 3.89995L15.0417 4.93329H3.54999C3.38423 4.93329 3.22526 4.99913 3.10805 5.11634C2.99084 5.23356 2.92499 5.39253 2.92499 5.55829C2.92499 5.72405 2.99084 5.88302 3.10805 6.00023C3.22526 6.11744 3.38423 6.18329 3.54999 6.18329H15.0417L14.0083 7.21662C13.8913 7.33381 13.8255 7.49266 13.8255 7.65829C13.8255 7.82391 13.8913 7.98277 14.0083 8.09995C14.0657 8.15876 14.1345 8.20533 14.2104 8.23684C14.2863 8.26835 14.3678 8.28415 14.45 8.28329C14.5321 8.28367 14.6135 8.26766 14.6893 8.23617C14.7652 8.20469 14.834 8.15838 14.8917 8.09995L16.9917 5.99995C17.045 5.95212 17.09 5.89581 17.125 5.83329C17.1629 5.75244 17.1826 5.66425 17.1826 5.57495C17.1826 5.48566 17.1629 5.39746 17.125 5.31662Z" fill="#7E8299"/>
</svg>
