<svg width="20" height="20" viewBox="0 0 20 20" fill="none" xmlns="http://www.w3.org/2000/svg">
<path opacity="0.3" d="M13.6083 2.60834H9.44166C9.45453 2.72743 9.45453 2.84757 9.44166 2.96667V3.55834C9.44229 3.87269 9.37656 4.18364 9.24875 4.47085C9.12095 4.75805 8.93395 5.01504 8.69999 5.225L6.76665 6.95834V8.8C6.77396 9.09689 6.68778 9.38856 6.5203 9.6338C6.35282 9.87903 6.11251 10.0654 5.83332 10.1667L4.99999 10.45C4.86796 10.4924 4.73033 10.5149 4.59166 10.5167C4.4018 10.5212 4.21299 10.4873 4.03658 10.417C3.86018 10.3466 3.69981 10.2414 3.56514 10.1075C3.43047 9.97357 3.32426 9.81382 3.25292 9.63782C3.18158 9.46182 3.14656 9.27321 3.14999 9.08334V6.94167L2.41665 6.29167C2.33992 6.6336 2.3008 6.9829 2.29999 7.33334V13.6083C2.29999 14.8615 2.7978 16.0633 3.68391 16.9494C4.57002 17.8355 5.77184 18.3333 7.02499 18.3333H13.6083C14.8615 18.3333 16.0633 17.8355 16.9494 16.9494C17.8355 16.0633 18.3333 14.8615 18.3333 13.6083V7.33334C18.3333 6.71284 18.2111 6.09842 17.9737 5.52516C17.7362 4.95189 17.3882 4.43101 16.9494 3.99226C16.5106 3.5535 15.9898 3.20546 15.4165 2.96801C14.8432 2.73055 14.2288 2.60834 13.6083 2.60834Z" fill="#A1A5B7"/>
<path d="M8.16667 4.62502L6.225 6.29169C6.13657 6.37147 6.06626 6.46928 6.01882 6.57853C5.97139 6.68778 5.94792 6.80593 5.95 6.92502V8.76669C5.95422 8.89489 5.91781 9.02114 5.84597 9.1274C5.77413 9.23366 5.67054 9.3145 5.55 9.35835L4.71667 9.64169C4.62947 9.66263 4.53858 9.66288 4.45126 9.64242C4.36394 9.62197 4.28262 9.58137 4.2138 9.52388C4.14497 9.46639 4.09054 9.3936 4.05487 9.31132C4.01919 9.22904 4.00326 9.13956 4.00834 9.05002V6.95835C4.01042 6.83927 3.98695 6.72112 3.93951 6.61187C3.89208 6.50261 3.82177 6.4048 3.73334 6.32502L1.79167 4.65835C1.64317 4.52343 1.52485 4.35867 1.44443 4.17486C1.36401 3.99104 1.32331 3.79232 1.325 3.59169V2.96669C1.30912 2.63866 1.42384 2.3177 1.64406 2.07405C1.86427 1.83041 2.17204 1.68394 2.5 1.66669H7.5C7.82648 1.68605 8.13214 1.83345 8.35058 2.07685C8.56902 2.32026 8.68261 2.64002 8.66667 2.96669V3.55835C8.66584 3.7618 8.62067 3.96262 8.53432 4.14684C8.44797 4.33105 8.32251 4.49423 8.16667 4.62502ZM10.3167 10.8334H14.0417C14.1281 10.8435 14.2157 10.8351 14.2987 10.809C14.3817 10.7828 14.4582 10.7394 14.5232 10.6815C14.5882 10.6237 14.6402 10.5527 14.6759 10.4733C14.7115 10.3939 14.7299 10.3079 14.7299 10.2209C14.7299 10.1338 14.7115 10.0478 14.6759 9.9684C14.6402 9.88901 14.5882 9.81805 14.5232 9.7602C14.4582 9.70234 14.3817 9.6589 14.2987 9.63273C14.2157 9.60656 14.1281 9.59825 14.0417 9.60835H10.3167C10.2302 9.59825 10.1426 9.60656 10.0597 9.63273C9.97666 9.6589 9.90014 9.70234 9.83514 9.7602C9.77013 9.81805 9.71811 9.88901 9.68248 9.9684C9.64686 10.0478 9.62844 10.1338 9.62844 10.2209C9.62844 10.3079 9.64686 10.3939 9.68248 10.4733C9.71811 10.5527 9.77013 10.6237 9.83514 10.6815C9.90014 10.7394 9.97666 10.7828 10.0597 10.809C10.1426 10.8351 10.2302 10.8435 10.3167 10.8334ZM14.3 13.075H7.31667C7.23023 13.0649 7.14264 13.0732 7.05965 13.0994C6.97666 13.1256 6.90014 13.169 6.83514 13.2269C6.77013 13.2847 6.7181 13.3557 6.68248 13.4351C6.64685 13.5145 6.62844 13.6005 6.62844 13.6875C6.62844 13.7745 6.64685 13.8606 6.68248 13.94C6.7181 14.0194 6.77013 14.0903 6.83514 14.1482C6.90014 14.206 6.97666 14.2495 7.05965 14.2756C7.14264 14.3018 7.23023 14.3101 7.31667 14.3H14.3C14.3864 14.3101 14.474 14.3018 14.557 14.2756C14.64 14.2495 14.7165 14.206 14.7815 14.1482C14.8465 14.0903 14.8986 14.0194 14.9342 13.94C14.9698 13.8606 14.9882 13.7745 14.9882 13.6875C14.9882 13.6005 14.9698 13.5145 14.9342 13.4351C14.8986 13.3557 14.8465 13.2847 14.7815 13.2269C14.7165 13.169 14.64 13.1256 14.557 13.0994C14.474 13.0732 14.3864 13.0649 14.3 13.075Z" fill="#A1A5B7"/>
</svg>
