<svg width="16" height="18" viewBox="0 0 16 18" fill="none" xmlns="http://www.w3.org/2000/svg">
<g id="grid">
<g id="element-10">
<path id="Vector" d="M5.70831 0.666687H1.54165C0.736231 0.666687 0.083313 1.31961 0.083313 2.12502V15.875C0.083313 16.6804 0.736231 17.3334 1.54165 17.3334H5.70831C6.51373 17.3334 7.16665 16.6804 7.16665 15.875V2.12502C7.16665 1.31961 6.51373 0.666687 5.70831 0.666687Z" fill="#3E97FF"/>
<g id="Group" opacity="0.3">
<path id="Vector_2" d="M14.4583 0.666687H10.2916C9.48623 0.666687 8.83331 1.31961 8.83331 2.12502V6.70835C8.83331 7.51377 9.48623 8.16669 10.2916 8.16669H14.4583C15.2637 8.16669 15.9166 7.51377 15.9166 6.70835V2.12502C15.9166 1.31961 15.2637 0.666687 14.4583 0.666687Z" fill="#3E97FF"/>
</g>
<g id="Group_2" opacity="0.3">
<path id="Vector_3" d="M14.4583 9.83337H10.2916C9.48623 9.83337 8.83331 10.4863 8.83331 11.2917V15.875C8.83331 16.6805 9.48623 17.3334 10.2916 17.3334H14.4583C15.2637 17.3334 15.9166 16.6805 15.9166 15.875V11.2917C15.9166 10.4863 15.2637 9.83337 14.4583 9.83337Z" fill="#3E97FF"/>
</g>
</g>
</g>
</svg>
