<svg width="20" height="20" viewBox="0 0 20 20" fill="none" xmlns="http://www.w3.org/2000/svg">
<path d="M15.8334 6.66669C17.2141 6.66669 18.3334 5.5474 18.3334 4.16669C18.3334 2.78598 17.2141 1.66669 15.8334 1.66669C14.4527 1.66669 13.3334 2.78598 13.3334 4.16669C13.3334 5.5474 14.4527 6.66669 15.8334 6.66669Z" fill="#A1A5B7"/>
<g opacity="0.3">
<path d="M15.8334 7.91667C14.8395 7.91447 13.8869 7.51867 13.1841 6.81589C12.4813 6.1131 12.0856 5.16055 12.0834 4.16667C12.0917 3.58639 12.2343 3.01594 12.5 2.5H5.83335C4.72828 2.5 3.66848 2.93899 2.88708 3.72039C2.10567 4.50179 1.66669 5.5616 1.66669 6.66667V14.1667C1.66669 15.2717 2.10567 16.3315 2.88708 17.1129C3.66848 17.8943 4.72828 18.3333 5.83335 18.3333H13.3334C14.4384 18.3333 15.4982 17.8943 16.2796 17.1129C17.061 16.3315 17.5 15.2717 17.5 14.1667V7.5C16.9841 7.7657 16.4136 7.90832 15.8334 7.91667Z" fill="#A1A5B7"/>
</g>
<path d="M9.58338 11.6667H5.67505C5.50929 11.6667 5.35032 11.6008 5.23311 11.4836C5.1159 11.3664 5.05005 11.2074 5.05005 11.0417C5.05005 10.8759 5.1159 10.717 5.23311 10.5997C5.35032 10.4825 5.50929 10.4167 5.67505 10.4167H9.58338C9.74914 10.4167 9.90811 10.4825 10.0253 10.5997C10.1425 10.717 10.2084 10.8759 10.2084 11.0417C10.2084 11.2074 10.1425 11.3664 10.0253 11.4836C9.90811 11.6008 9.74914 11.6667 9.58338 11.6667Z" fill="#A1A5B7"/>
<path d="M12.9167 15H5.67505C5.50929 15 5.35032 14.9342 5.23311 14.8169C5.1159 14.6997 5.05005 14.5408 5.05005 14.375C5.05005 14.2092 5.1159 14.0503 5.23311 13.9331C5.35032 13.8158 5.50929 13.75 5.67505 13.75H12.9167C13.0825 13.75 13.2414 13.8158 13.3587 13.9331C13.4759 14.0503 13.5417 14.2092 13.5417 14.375C13.5417 14.5408 13.4759 14.6997 13.3587 14.8169C13.2414 14.9342 13.0825 15 12.9167 15Z" fill="#A1A5B7"/>
</svg>
