<svg width="20" height="20" viewBox="0 0 20 20" fill="none" xmlns="http://www.w3.org/2000/svg">
<path opacity="0.3" d="M7.52501 9.50002C9.70654 9.50002 11.475 7.74647 11.475 5.58335C11.475 3.42024 9.70654 1.66669 7.52501 1.66669C5.34349 1.66669 3.57501 3.42024 3.57501 5.58335C3.57501 7.74647 5.34349 9.50002 7.52501 9.50002Z" fill="#A1A5B7"/>
<path d="M7.52502 18.3333C10.7605 18.3333 13.3834 16.5798 13.3834 14.4167C13.3834 12.2536 10.7605 10.5 7.52502 10.5C4.28955 10.5 1.66669 12.2536 1.66669 14.4167C1.66669 16.5798 4.28955 18.3333 7.52502 18.3333Z" fill="#A1A5B7"/>
<g opacity="0.3">
<path d="M13.6584 3.33336C13.1999 3.33389 12.7473 3.43636 12.3334 3.63336C12.6827 4.48099 12.7958 5.4074 12.6608 6.31418C12.5258 7.22096 12.1477 8.07423 11.5667 8.78336C11.9437 9.12664 12.3987 9.37274 12.8923 9.50031C13.386 9.62788 13.9033 9.63307 14.3994 9.51542C14.8954 9.39778 15.3553 9.16085 15.7391 8.82521C16.1229 8.48957 16.419 8.06534 16.6016 7.58935C16.7843 7.11336 16.8481 6.59998 16.7874 6.09375C16.7267 5.58753 16.5435 5.10376 16.2535 4.68443C15.9635 4.26509 15.5755 3.92285 15.1233 3.68741C14.6711 3.45197 14.1682 3.33044 13.6584 3.33336Z" fill="#A1A5B7"/>
</g>
<path d="M13.6583 10.4167C13.1908 10.4163 12.7245 10.4638 12.2667 10.5584C12.9551 10.9483 13.5328 11.5071 13.9454 12.1822C14.358 12.8572 14.5919 13.6262 14.625 14.4167C14.6213 15.2185 14.3807 16.0013 13.9333 16.6667C16.3833 16.575 18.3333 15.2167 18.3333 13.55C18.3333 11.8834 16.2417 10.4167 13.6583 10.4167Z" fill="#A1A5B7"/>
</svg>
