<svg width="20" height="20" viewBox="0 0 20 20" fill="none" xmlns="http://www.w3.org/2000/svg">
<path opacity="0.3" d="M10 18.3334C14.6024 18.3334 18.3334 14.6024 18.3334 10C18.3334 5.39765 14.6024 1.66669 10 1.66669C5.39765 1.66669 1.66669 5.39765 1.66669 10C1.66669 14.6024 5.39765 18.3334 10 18.3334Z" fill="#A1A5B7"/>
<path d="M13.5417 10.625H10C9.83491 10.6228 9.67719 10.5563 9.56045 10.4396C9.4437 10.3228 9.37716 10.1651 9.375 10V5C9.375 4.83424 9.44085 4.67527 9.55806 4.55806C9.67527 4.44085 9.83424 4.375 10 4.375C10.1658 4.375 10.3247 4.44085 10.4419 4.55806C10.5592 4.67527 10.625 4.83424 10.625 5V9.39167H13.5417C13.7074 9.39167 13.8664 9.45751 13.9836 9.57473C14.1008 9.69194 14.1667 9.85091 14.1667 10.0167C14.1667 10.1824 14.1008 10.3414 13.9836 10.4586C13.8664 10.5758 13.7074 10.6417 13.5417 10.6417V10.625Z" fill="#A1A5B7"/>
</svg>
